<svg xmlns="http://www.w3.org/2000/svg" viewBox="0 0 420 600" role="img" aria-labelledby="title desc">
  <title id="title">远方来信封面</title><desc id="desc">粉橙色天空下，女孩站在山顶看向远方的灯火。</desc>
  <defs><linearGradient id="sky" x1="0" y1="0" x2="0" y2="1"><stop stop-color="#4e4d91"/><stop offset=".6" stop-color="#ed8ca0"/><stop offset="1" stop-color="#ffc28e"/></linearGradient></defs><rect width="420" height="600" fill="url(#sky)"/><path d="M0 390c80-64 145-22 219-49 75-28 131-12 221-65v324H0Z" fill="#343c70"/><path d="M0 448c93-43 154-2 239-24 75-19 125-4 181-38v214H0Z" fill="#172544"/><circle cx="287" cy="300" r="39" fill="#ffe1a6" opacity=".88"/><path d="M208 416v-92c5-22 41-22 46 0v92" fill="#243c6c"/><circle cx="231" cy="303" r="16" fill="#f0b09c"/><path d="M216 300c2-25 33-29 40-1l-8 10h-31Z" fill="#29254c"/><path d="M218 333h-19l-24 70h23l22-35 26 35h22l-25-70Z" fill="#658fc0"/><circle cx="67" cy="127" r="3" fill="#fff4d1"/><circle cx="351" cy="152" r="3" fill="#fff4d1"/><text x="30" y="530" fill="#fff4df" font-family="sans-serif" font-size="26">远方来信</text><text x="31" y="557" fill="#ffd4c7" font-family="sans-serif" font-size="12" letter-spacing="3">山顶的灯亮起时</text></svg>
